<svg version="1.0" xmlns="http://www.w3.org/2000/svg"
 width="80px" height="35px" viewBox="0 0 500.000000 200.000000"
 preserveAspectRatio="xMidYMid meet">
<g transform="translate(0.000000,200.000000) scale(0.100000, -0.100000)"
fill="firebrick" stroke="none">
<path d="M895 2076 c-388 -63 -712 -348 -819 -720 -107 -367 -1 -756 277
-1023 134 -129 279 -207 474 -255 133 -33 341 -30 478 6 133 35 300 119 394
199 216 180 351 451 368 733 25 432 -235 840 -639 1000 -157 62 -373 87 -533
60z m415 -69 c178 -53 318 -136 436 -259 363 -375 370 -957 16 -1340 -219
-236 -555 -349 -875 -293 -342 59 -635 305 -749 628 -183 516 90 1073 614
1251 113 38 168 45 328 42 119 -3 160 -8 230 -29z"/>
<path d="M890 1890 c-145 -31 -244 -78 -357 -171 -130 -108 -229 -258 -275
-416 -33 -113 -33 -342 0 -458 63 -218 227 -412 437 -515 120 -59 218 -81 360
-81 136 0 240 23 350 75 238 114 409 328 460 572 19 92 19 272 1 361 -19 90
-67 204 -113 271 -202 294 -534 433 -863 362z m325 -45 c157 -33 270 -95 388
-212 179 -177 258 -404 228 -651 -29 -240 -173 -459 -383 -584 -260 -154 -616
-133 -858 50 -150 113 -265 290 -300 458 -17 81 -15 276 4 356 55 236 262 472
483 549 138 48 307 62 438 34z"/>
<path d="M1361 1499 c-39 -15 -167 -152 -179 -190 -6 -19 -17 -59 -26 -90 -15
-54 -23 -63 -241 -269 -124 -117 -225 -217 -225 -222 0 -21 22 -49 52 -64 l31
-16 87 88 c47 49 146 153 221 231 123 130 140 145 194 163 32 11 77 31 101 45
72 42 182 180 161 202 -4 4 -38 -23 -75 -60 -37 -37 -73 -67 -80 -67 -33 0
-21 35 37 105 33 41 61 79 61 84 0 28 -29 17 -95 -38 -69 -58 -97 -71 -109
-53 -2 4 24 41 60 80 77 88 79 93 25 71z"/>
<path d="M595 1445 c-35 -34 -33 -89 4 -163 51 -101 138 -158 202 -133 21 8
31 2 86 -52 l63 -61 25 24 c14 13 25 27 25 32 0 5 -27 34 -59 64 -58 53 -59
55 -50 92 12 54 -5 104 -51 150 -72 71 -197 96 -245 47z"/>
<path d="M1102 937 c-12 -13 -22 -27 -22 -32 0 -8 33 -45 163 -184 63 -67 71
-72 93 -63 31 15 58 57 47 75 -14 24 -235 227 -248 227 -6 0 -21 -10 -33 -23z"/>
<path d="M2770 1096 l0 -576 105 0 105 0 0 190 0 190 78 0 c63 0 82 -4 94 -17
8 -10 52 -95 99 -190 l84 -172 103 0 c62 -1 102 3 102 9 0 6 -44 97 -97 203
-54 105 -99 195 -101 198 -1 3 18 22 43 41 112 88 160 193 153 337 -3 59 -11
101 -26 134 -31 70 -121 159 -195 193 l-62 29 -242 3 -243 3 0 -575z m470 344
c123 -63 126 -229 7 -308 -37 -25 -51 -27 -154 -31 l-113 -3 0 181 0 181 110
0 c91 0 118 -4 150 -20z"/>
<path d="M4210 1096 l0 -576 105 0 105 0 2 188 3 187 82 3 83 3 92 -190 93
-190 103 0 c62 -1 102 3 102 9 0 6 -45 99 -99 209 l-100 198 49 36 c130 97
184 283 129 446 -29 85 -114 177 -201 217 l-63 29 -242 3 -243 3 0 -575z m467
347 c19 -9 48 -34 64 -56 25 -34 29 -50 29 -102 0 -53 -4 -68 -30 -103 -47
-65 -77 -76 -205 -77 l-110 0 -3 178 -2 177 111 0 c83 0 120 -4 146 -17z"/>
</g>
</svg>
